<svg width="47" height="42" viewBox="0 0 47 42" fill="none" xmlns="http://www.w3.org/2000/svg">
<path d="M0.816761 22.1886V19.2727H14.5547V22.1886H9.43359V36H5.93786V22.1886H0.816761ZM20.1332 19.2727L23.5064 24.9737H23.6371L27.0266 19.2727H31.0206L25.9158 27.6364L31.1349 36H27.0675L23.6371 30.2908H23.5064L20.076 36H16.0249L21.2603 27.6364L16.1229 19.2727H20.1332ZM42.3327 24.0835C42.2674 23.4246 41.987 22.9128 41.4915 22.5479C40.996 22.1831 40.3235 22.0007 39.4741 22.0007C38.8969 22.0007 38.4096 22.0824 38.0121 22.2457C37.6146 22.4036 37.3097 22.6242 37.0973 22.9073C36.8904 23.1905 36.7869 23.5117 36.7869 23.8711C36.776 24.1706 36.8387 24.4319 36.9748 24.6552C37.1164 24.8784 37.3097 25.0717 37.5547 25.2351C37.7997 25.393 38.0829 25.5318 38.4041 25.6516C38.7254 25.766 39.0684 25.864 39.4332 25.9457L40.9361 26.305C41.6657 26.4684 42.3355 26.6862 42.9453 26.9585C43.5552 27.2307 44.0833 27.5656 44.5298 27.9631C44.9763 28.3606 45.3221 28.8288 45.5671 29.3679C45.8176 29.907 45.9455 30.525 45.951 31.2219C45.9455 32.2456 45.6842 33.1332 45.1669 33.8846C44.6551 34.6306 43.9145 35.2105 42.9453 35.6243C41.9815 36.0327 40.819 36.2369 39.4577 36.2369C38.1074 36.2369 36.9312 36.0299 35.9293 35.6161C34.9329 35.2023 34.1542 34.5897 33.5934 33.7784C33.038 32.9616 32.7467 31.9516 32.7195 30.7482H36.1417C36.1798 31.3091 36.3404 31.7773 36.6236 32.1531C36.9122 32.5233 37.296 32.8037 37.7752 32.9943C38.2598 33.1795 38.8071 33.272 39.4169 33.272C40.0159 33.272 40.5359 33.1849 40.9769 33.0107C41.4234 32.8364 41.7692 32.5941 42.0142 32.2837C42.2592 31.9734 42.3817 31.6167 42.3817 31.2138C42.3817 30.8381 42.2701 30.5223 42.0469 30.2663C41.8291 30.0104 41.5078 29.7926 41.0831 29.6129C40.6638 29.4332 40.1493 29.2699 39.5394 29.1229L37.718 28.6655C36.3078 28.3224 35.1942 27.7861 34.3775 27.0565C33.5607 26.3268 33.1551 25.344 33.1605 24.108C33.1551 23.0952 33.4246 22.2103 33.9691 21.4535C34.5191 20.6966 35.2732 20.1058 36.2315 19.6811C37.1899 19.2564 38.2789 19.044 39.4986 19.044C40.7401 19.044 41.8236 19.2564 42.7493 19.6811C43.6804 20.1058 44.4046 20.6966 44.9219 21.4535C45.4392 22.2103 45.706 23.087 45.7223 24.0835H42.3327Z" fill="#D6D5D5"/>
<path d="M45 1C45 0.447715 44.5523 1.40747e-07 44 1.40747e-07L35 1.40747e-07C34.4477 1.40747e-07 34 0.447715 34 1C34 1.55228 34.4477 2 35 2H43V10C43 10.5523 43.4477 11 44 11C44.5523 11 45 10.5523 45 10L45 1ZM33.7071 12.7071L44.7071 1.70711L43.2929 0.292893L32.2929 11.2929L33.7071 12.7071Z" fill="#D6D5D5"/>
<rect x="23" width="6" height="14" fill="#D6D5D5"/>
<rect x="13" y="4" width="6" height="10" fill="#D6D5D5"/>
<rect x="3" y="10" width="6" height="4" fill="#D6D5D5"/>
</svg>
